<?xml version="1.0" encoding="UTF-8"?>
<svg id="_레이어_4" data-name="레이어 4" xmlns="http://www.w3.org/2000/svg" viewBox="0 0 1080 1080">
  <path d="m282.03,482.14v535.52c8.15,4.06,16.46,7.95,24.93,11.67,156.33,68.59,331.77,62.04,475.62-3.99V482.14c0-66.78-54.13-120.91-120.91-120.91h-258.74c-66.78,0-120.91,54.13-120.91,120.91Zm206.03,93.31c-1.04.54-2.3.75-3.8.42-1.64,0-2.9-.55-3.82-1.43-9.13-4.97-9.04-18.95-9.75-29.32-.49-10.77.34-33.15,12.75-35.94,4.33-.98,9.31,1.34,11.58,5.68,4.08,7.56-1.8,16.49-2.18,24.36-.46,10.23,8.68,32.93-4.78,36.24Zm101.66-2.31c-1.08.58-2.4.81-3.96.46-1.74,0-3.07-.59-4.03-1.52-9.01-5.03-8.95-18.68-9.5-29.18-.54-10.56.46-32.96,12.72-35.63,4.42-1,9.29,1.56,11.63,5.77,3.97,7.69-1.8,16.4-2.17,24.22-.45,10.2,8.56,32.46-4.7,35.88Z"/>
</svg>