<?xml version="1.0" encoding="UTF-8"?>
<svg id="skin" xmlns="http://www.w3.org/2000/svg" viewBox="0 0 1080 1080">
  <defs>
    <style>
      .cls-1 {
        fill: none;
        stroke: #000;
        stroke-linecap: round;
        stroke-miterlimit: 10;
        stroke-width: 5px;
      }
    </style>
  </defs>
  <g id="bear">
    <path class="cls-1" d="m496.81,214.9s7.01-3.41,37.73-4.64c4.81-.19,9.09-.99,12.26-1.18,2.94-.18,6.29-.38,10-1.07,10.36-2,11.95-1.77,20.18-4.42,13.66-4.43,17.97-8.05,23.44-12.95,4.28-3.84,8.87-22.66,8.56-28.64-.44-8.71-7.53-18.16-11.36-22.79-4.88-2.74-4.38-3.34-13.61-5.52s-14.71-.69-17.1-2.68c-3.54-2.95-5.76-6.2-7.38-11.07,0,0-4.87-14.52-.26-30.83.52-5.27,3.29-8.41,4.63-9.5,3.71-3.01,8.43-2.38,16.29-7.06,9.61-5.72,11.07-9.39,16.74-17.55,3.67-6.8,4.12-8.94,4.12-15.47,0-5.85-.31-11.2-1.47-15.29s-2.55-6.35-5.79-9.96c-5.75-6.4-5.98-7.45-18.49-11.17-9.83-2.93-36.1-1.18-43.5-1.56-20.35-1.06-62.98,2.43-62.98,2.43"/>
  </g>
</svg>