<?xml version="1.0" encoding="UTF-8"?>
<svg id="skin" xmlns="http://www.w3.org/2000/svg" viewBox="0 0 1080 1080">
  <g id="bunny">
    <path id="line" d="m468.9,6.44s86.08-11.33,152.47-.81c40.2,6.37,80.28,18.73,88.74,20.92,10.06,2.61,28.81,9.9,29.26,25.66.31,10.86-10.16,21.41-37.26,22.51-27.1,1.11-26.28.75-51.24-.78-24.85-1.52-76.58-8.94-86.84-5.96-11.36,3.3-14.82,10.76-15.59,21.65-.62,8.84-3.16,17.07-1.43,36.39,1.31,14.71,14.63,19.17,26.55,20.59,16.37,1.95,39,5.09,52.78,6.2,14.74,1.19,29.28.88,45.07,1.85,13.65.84,22.92.5,33.74,2.19,18.49,2.89,30.88,10.79,30.53,22.44s-8.91,20.27-43.21,25.38c-32.83,4.89-41.81,7.12-57.84,7.12-10.01,0-40.86.46-65.41,0-16.23-.31-63.11,2.07-72.3.54"/>
  </g>
</svg>