<svg id="skin" xmlns="http://www.w3.org/2000/svg" viewBox="0 0 1080 1080"><defs><style>.cls-1{fill:none}</style></defs><g id="bunny_profile"><path class="cls-1" d="M585 613c-1-3-5-5-8-4-8 2-8 17-8 24s0 16 6 20l3 1 3-1c9-2 3-17 3-24 0-5 4-11 1-16ZM502 613c-2-3-5-5-8-4-9 2-10 17-9 25 0 7 0 17 6 20l3 1h3c9-3 3-18 3-25 0-6 4-12 2-17Z"/><path d="M775 244c-15-107-100-137-122-39-9 84-7 169-24 255-4 23-14 49-49 52-61-3-114 12-137-33-7-59 25-190 15-268-3-53-28-73-53-72-103 23-121 296-122 390v490l25 12c156 66 331 60 475-4V543c-2-115 16-185-8-299ZM497 655h-3l-3-1c-6-3-6-13-6-20-1-8 0-23 9-25 3-1 6 1 7 4 3 5-1 11-1 17 0 7 6 22-3 25Zm84-2-3 1-3-1c-6-4-6-13-6-20s0-22 8-24c3-1 7 1 8 4 3 5-1 11-1 16 0 7 6 22-3 24Z"/></g></svg>