<?xml version="1.0" encoding="UTF-8"?>
<svg id="skin" xmlns="http://www.w3.org/2000/svg" viewBox="0 0 1080 1080">
  <defs>
    <style>
      .cls-1 {
        fill: none;
        stroke: #000;
        stroke-miterlimit: 10;
        stroke-width: 5px;
      }
    </style>
  </defs>
  <g id="bunny">
    <path id="line" class="cls-1" d="m531.46-6.24s48.08,3.37,89.91,11.86,80.28,18.73,88.74,20.92c10.06,2.61,28.81,9.9,29.26,25.66.31,10.86-10.16,21.41-37.26,22.51s-26.28.75-51.24-.78-76.58-8.94-86.84-5.96c-11.36,3.3-14.82,10.76-15.59,21.65-.62,8.84-3.16,17.07-1.43,36.39,1.31,14.71,14.63,19.17,26.55,20.59,16.37,1.95,39,5.09,52.78,6.2,14.74,1.19,29.28.88,45.07,1.85,13.65.84,22.92.5,33.74,2.19,18.49,2.89,30.88,10.79,30.53,22.44s-16.45,24.27-50.75,29.38c-32.83,4.89-35.48,5.07-51.52,5.07-10.01,0-39.12,3.13-63.66,2.66-16.23-.31-25.42-2.14-34.61-3.68"/>
  </g>
</svg>