<?xml version="1.0" encoding="UTF-8"?>
<svg id="spinner" xmlns="http://www.w3.org/2000/svg" viewBox="0 0 1080 1080">
  <defs>
    <style>
      .cls-1 {
        fill: #ddd9d9;
      }
    </style>
  </defs>
  <g id="cat">
    <path class="cls-1" d="m605.7,35.99C573.42-1.52,561.79.05,515.01,1.9c-.43.02-.79-.31-.82-.74h0c-.03-.43-.4-.77-.84-.74C322.5,10.29,142.89,121.49,54.56,305.95-29.62,481.73-10.05,680.43,88.83,832.76c16.62,25.6,51.6,31.54,75.95,13.14l72.18-52.4c21.72-16.41,5.7-55.06-8.67-78.17-57.37-92.27-69.46-231.55-19.03-336.76,50.8-106.14,178.5-201.87,287.43-214.2,13.55-1.94,26.46-3.04,40-3.87,28.89-1.77,68.48-10.73,63.86-21.29-9.03-20.64-46.16-9.32-44.23-49.96,0-.03,2.29-29.37,2.3-29.39,5.86-17.57,56.35-13.11,47.09-23.87Zm-103.28,28.71c14.58-3.71,20.12,16.24,2.5,9.84-.17-.06-.37-.06-.54,0-15.51,5.77-19.57-10.5-2.16-9.82.07,0,.14,0,.2-.02Zm2.37,44.35c-33.53,4.43,2.27-21.6,11.67-4.25.06.11.09.23.1.35.57,7.05-7.07,5.23-11.45,3.93-.1-.03-.21-.04-.32-.02Z"/>
  </g>
</svg>