<?xml version="1.0" encoding="UTF-8"?>
<svg id="skin" xmlns="http://www.w3.org/2000/svg" viewBox="0 0 1080 1080">
  <defs>
    <style>
      .cls-1 {
        fill: none;
      }
    </style>
  </defs>
  <g>
    <path class="cls-1" d="m585.31,521.96c-1.58-2.84-4.86-4.57-7.84-3.89-8.27,1.81-8.94,16.91-8.58,24.03.36,7.08.32,16.29,6.4,19.68.65.63,1.54,1.03,2.72,1.03,1.05.23,1.94.08,2.67-.31,8.94-2.31,2.86-17.31,3.17-24.2.25-5.28,4.14-11.15,1.46-16.34Z"/>
    <path class="cls-1" d="m501.5,522.06c-1.57-2.99-4.99-4.58-7.97-3.91-8.54,1.92-9.12,17.33-8.78,24.74.48,7.14.43,16.76,6.71,20.19.63.61,1.5.99,2.63.99,1.03.23,1.9.08,2.62-.29,9.27-2.27,2.97-17.9,3.29-24.95.26-5.42,4.31-11.57,1.5-16.77Z"/>
    <path d="m283.03,454.43v557.59c8.15,4.44,16.46,8.7,24.93,12.76,156.33,75.02,330.77,67.85,474.62-4.36V454.43h-499.55Zm213.67,109.34c-.72.37-1.59.52-2.62.29-1.13,0-2-.38-2.63-.99-6.28-3.42-6.23-13.05-6.71-20.19-.34-7.41.24-22.82,8.78-24.74,2.98-.67,6.41.92,7.97,3.91,2.81,5.2-1.24,11.35-1.5,16.77-.32,7.04,5.98,22.67-3.29,24.95Zm83.97-1.29c-.73.39-1.62.54-2.67.31-1.17,0-2.07-.4-2.72-1.03-6.08-3.39-6.04-12.6-6.4-19.68-.37-7.12.31-22.22,8.58-24.03,2.98-.67,6.26,1.05,7.84,3.89,2.68,5.19-1.21,11.06-1.46,16.34-.3,6.88,5.77,21.89-3.17,24.2Z"/>
  </g>
  <g id="cat">
    <path d="m397.89,252.77c-13.22,3.05-29.81,20.66-31.54,23.52-8.82,14.95-30.26,35.41-44.58,66.55-8.59,18.85-25.22,35.13-33.43,72.53-6.33,28.82-5.26,59.55-5.26,59.55l499.51,2.39s.23-12.84-.98-47.26c-.25-7.19-2.6-22.28-5.22-31.1-7.44-24.61-7.34-28.54-15.7-47.82-13.94-32-35.58-53.56-44.5-68.95-1.59-2.87-18.52-21.55-32-25.27-12.5-3.3-22.91,8.98-29.47,15.53-17.93,19.85-23.19,61.46-38.35,85.62-11.71,18.84-15.78,20.88-21.58,25.59-3.29,2.66-13.92,11.87-24.02,14.72,0,0-28.78,8.49-67.6,1.53-9.58-3.5-19.42-13.15-22.56-15.82-5.5-4.93-9.23-7.39-20.13-26.68-13.88-24.83-17.78-66.86-34.74-87.59-6.11-6.98-15.78-19.7-27.83-17.06Z"/>
  </g>
</svg>