<?xml version="1.0" encoding="UTF-8"?><svg xmlns="http://www.w3.org/2000/svg" id="skin" viewBox="0 0 1080 1080"><defs><style>.cls-1{fill:none}</style></defs><path d="M585 522c-1-3-5-5-8-4-8 2-8 17-8 24s0 16 6 20l3 1 3-1c9-2 3-17 3-24 0-5 4-11 1-16ZM502 522c-2-3-5-5-8-4-9 2-10 17-9 25 0 7 0 17 6 20l3 1h3c9-2 3-18 3-25 0-6 4-12 2-17Z" class="cls-1"/><path d="M283 454v558a540 540 0 0 0 500 8V454H283Zm214 110h-3l-3-1c-6-3-6-13-6-20-1-8 0-23 9-25 2-1 6 1 7 4 3 5-1 11-1 17 0 7 6 22-3 25Zm84-2-3 1-3-1c-6-4-6-13-6-20s0-22 8-24c3-1 7 1 8 4 3 5-1 11-1 16 0 7 6 22-3 24Z"/><path id="cat" d="M398 253c-57 14-120 148-115 222l500 2-1-47c-2-52-42-115-66-148-59-82-76 34-100 76-28 52-25 50-113 42-68-6-63-152-105-147Z"/></svg>