<?xml version="1.0" encoding="UTF-8"?>
<svg id="rounded_cap" xmlns="http://www.w3.org/2000/svg" viewBox="0 0 1080 1080">
  <defs>
    <style>
      .cls-1 {
        fill: none;
      }

      .cls-2 {
        fill: #ddd;
      }
    </style>
  </defs>
  <g>
    <path class="cls-1" d="m543.14,210.51v.18s-12.71-.95-12.71-.95c3.57-.13,9.14.79,12.71.78Z"/>
    <path class="cls-2" d="m500.32,211.65c17.21-6.71,40.91-1.65,47.62-47.81l-.8,46.66c-3.57,0-13.14-.9-16.71-.77l-30.11,1.92Z"/>
  </g>
  <g>
    <path class="cls-1" d="m516.68.49c-1.9-.37-3.87-.56-5.89-.55l31.46.88v.08c-7.85.02-17.71-.77-25.57-.41Z"/>
    <path class="cls-2" d="m548.46,48.95c-.94-35.35-16.68-43.7-42.45-46.71,7.87-.37,37.4-.32,45.25-.35l-2.8,47.06Z"/>
  </g>
</svg>