<?xml version="1.0" encoding="UTF-8"?>
<svg id="_레이어_2" data-name="레이어 2" xmlns="http://www.w3.org/2000/svg" viewBox="0 0 40.6 40.6">
  <defs>
    <style>
      .cls-1 {
        fill: none;
      }

      .cls-2 {
        fill: #d3d3d3;
      }

      .cls-3 {
        fill: #34a853;
      }

      .cls-3, .cls-4, .cls-5, .cls-6, .cls-7 {
        fill-rule: evenodd;
      }

      .cls-4 {
        fill: #4285f4;
      }

      .cls-5 {
        fill: #fff;
      }

      .cls-6 {
        fill: #ea4335;
      }

      .cls-7 {
        fill: #fbbc05;
      }
    </style>
  </defs>
  <g id="_레이어_1-2" data-name="레이어 1">
    <g id="Google-Button">
      <g id="btn_google_light_normal" data-name="btn google light normal">
        <g id="button">
          <g id="button-bg">
            <g id="path-2">
              <path class="cls-5" d="m20.3,40.45C9.19,40.45.15,31.41.15,20.3S9.19.15,20.3.15s20.15,9.04,20.15,20.15-9.04,20.15-20.15,20.15Z"/>
              <path class="cls-2" d="m20.3.3c11,0,20,9,20,20s-9,20-20,20S.3,31.3.3,20.3,9.3.3,20.3.3m0-.3C9.11,0,0,9.11,0,20.3s9.11,20.3,20.3,20.3,20.3-9.11,20.3-20.3S31.49,0,20.3,0h0Z"/>
            </g>
            <g id="path-2-2" data-name="path-2">
              <path class="cls-2" d="m20.3.3c11,0,20,9,20,20s-9,20-20,20S.3,31.3.3,20.3,9.3.3,20.3.3m0-.3C9.11,0,0,9.11,0,20.3s9.11,20.3,20.3,20.3,20.3-9.11,20.3-20.3S31.49,0,20.3,0h0Z"/>
            </g>
            <g id="path-2-3" data-name="path-2">
              <path class="cls-2" d="m20.3.3c11,0,20,9,20,20s-9,20-20,20S.3,31.3.3,20.3,9.3.3,20.3.3m0-.3C9.11,0,0,9.11,0,20.3s9.11,20.3,20.3,20.3,20.3-9.11,20.3-20.3S31.49,0,20.3,0h0Z"/>
            </g>
            <g id="path-2-4" data-name="path-2">
              <path class="cls-2" d="m20.3.3c11,0,20,9,20,20s-9,20-20,20S.3,31.3.3,20.3,9.3.3,20.3.3m0-.3C9.11,0,0,9.11,0,20.3s9.11,20.3,20.3,20.3,20.3-9.11,20.3-20.3S31.49,0,20.3,0h0Z"/>
            </g>
          </g>
        </g>
        <g id="logo_googleg_48dp" data-name="logo googleg 48dp">
          <path id="Shape" class="cls-4" d="m28.9,20.5c0-.6-.1-1.3-.2-1.8h-8.4v3.5h4.8c-.2,1.1-.8,2-1.8,2.7v2.3h3c1.7-1.6,2.6-4,2.6-6.7h0Z"/>
          <path id="Shape-2" data-name="Shape" class="cls-3" d="m20.3,29.3c2.4,0,4.5-.8,6-2.2l-3-2.2c-.8.5-1.8.9-3,.9-2.3,0-4.3-1.6-5-3.7h-3v2.2c1.4,3,4.5,5,8,5h0Z"/>
          <path id="Shape-3" data-name="Shape" class="cls-7" d="m15.3,22c-.2-.5-.3-1.1-.3-1.7s.1-1.2.3-1.7v-2.3h-3c-.7,1.2-1,2.5-1,4s.3,2.8,1,4l3-2.3h0Z"/>
          <path id="Shape-4" data-name="Shape" class="cls-6" d="m20.3,14.9c1.3,0,2.5.5,3.4,1.3l2.6-2.6c-1.5-1.4-3.6-2.3-6-2.3-3.5,0-6.6,2-8,5l3,2.3c.7-2.1,2.7-3.7,5-3.7h0Z"/>
          <path id="Shape-5" data-name="Shape" class="cls-1" d="m11.3,11.3h18v18H11.3V11.3Z"/>
        </g>
      </g>
    </g>
  </g>
</svg>