<?xml version="1.0" encoding="UTF-8"?>
<svg id="skin" xmlns="http://www.w3.org/2000/svg" viewBox="0 0 1080 1080">
  <g id="bear">
    <path d="m382.91,309.68c-14.07-.75-26.98-.69-36.97,1.57-9.55,2.16-15.61,5.31-24.72,12.65-16.14,13.01-18.69,13.42-29.27,43.05-9.72,27.22-8.92,89.32-8.92,89.32l499.55,35.24s0-.16.03-.93c.08-1.77.25-7.47.22-26.37-.13-7.1.07-21.46-1.12-30.48-3.49-25.18-1.74-24.84-7.07-44.98-8.91-33.44-17.05-44.27-28.15-58.07-8.68-10.8-53.38-24.25-67.81-24.29-21.02-.06-44.66,15.78-56.32,24.4-7.23,11.39-8.59,10.1-15.04,32.03-6.3,21.44-3.55,35.31-8.66,40.81-7.56,8.14-15.66,13.05-27.59,16.33,0,0-35.57,9.84-74.21-3.36-12.61-1.92-19.81-9-22.26-12.37-6.77-9.31-4.65-20.6-14.9-40.12-12.53-23.86-21.17-27.84-40.08-42.54-15.9-9.72-20.98-11.07-36.7-11.91Z"/>
  </g>
  <path d="m283.03,455.35v562.32c8.15,4.06,16.46,7.95,24.93,11.67,156.33,68.59,330.77,62.04,474.62-3.99V455.35h-499.55Zm213.67,108.42c-.72.37-1.59.52-2.62.29-1.13,0-2-.38-2.63-.99-6.28-3.42-6.23-13.05-6.71-20.19-.34-7.41.24-22.82,8.78-24.74,2.98-.67,6.41.92,7.97,3.91,2.81,5.2-1.24,11.35-1.5,16.77-.32,7.04,5.98,22.67-3.29,24.95Zm83.97-1.29c-.73.39-1.62.54-2.67.31-1.17,0-2.07-.4-2.72-1.03-6.08-3.39-6.04-12.6-6.4-19.68-.37-7.12.31-22.22,8.58-24.03,2.98-.67,6.26,1.05,7.84,3.89,2.68,5.19-1.21,11.06-1.46,16.34-.3,6.88,5.77,21.89-3.17,24.2Z"/>
</svg>