<?xml version="1.0" encoding="UTF-8"?>
<svg id="skin" xmlns="http://www.w3.org/2000/svg" viewBox="0 0 1080 1080">
  <defs>
    <style>
      .cls-1 {
        fill: none;
      }
    </style>
  </defs>
  <path class="cls-1" d="m585.31,612.85c-1.58-2.84-4.86-4.57-7.84-3.89-8.27,1.81-8.94,16.91-8.58,24.03.36,7.08.32,16.29,6.4,19.68.65.63,1.54,1.03,2.72,1.03,1.05.23,1.94.08,2.67-.31,8.94-2.31,2.86-17.31,3.17-24.2.25-5.28,4.14-11.15,1.46-16.34Z"/>
  <path class="cls-1" d="m501.5,612.95c-1.57-2.99-4.99-4.58-7.97-3.91-8.54,1.92-9.12,17.33-8.78,24.74.48,7.14.43,16.76,6.71,20.19.63.61,1.5.99,2.63.99,1.03.23,1.9.08,2.62-.29,9.27-2.27,2.97-17.9,3.29-24.95.26-5.42,4.31-11.57,1.5-16.77Z"/>
  <path d="m775.38,243.71c-12.24-66.53-42.19-97.72-69.79-98.36-27.6-.64-46.26,23.42-53.03,59.3-3.96,21-3.12,38.98-5.05,65.46-2.24,30.64-1.44,58.84-4.2,87.44-2.57,26.74-9.92,70.65-14.48,102.41-3.32,23.13-13.83,48.99-48.67,51.57-45.75,3.42-65.26-1.48-86.2-2.66-25.8-1.46-43.48-8.15-51.34-30.17-7.1-19.89,10.25-120.06,13.77-168.49,3.53-48.43,4.36-46.84,1.65-99.41-2.71-52.57-27.74-72.85-53.46-72.21-37.33.92-54.52,37.32-60.66,56.85-5.15,16.42-36.1,93.99-49.2,172.23-11.39,65.84-12.07,131.75-11.67,161.37v490.3c8.15,3.95,16.46,7.73,24.93,11.34,156.33,66.68,330.77,60.31,474.62-3.88v-483.45c0-44.37,5.07-168.6,5-199.72-.06-31.12-.5-36.26-12.21-99.93Zm-278.67,410.95c-.72.37-1.59.52-2.62.29-1.13,0-2-.38-2.63-.99-6.28-3.42-6.23-13.05-6.71-20.19-.34-7.41.24-22.82,8.78-24.74,2.98-.67,6.41.92,7.97,3.91,2.81,5.2-1.24,11.35-1.5,16.77-.32,7.04,5.98,22.67-3.29,24.95Zm83.97-1.29c-.73.39-1.62.54-2.67.31-1.17,0-2.07-.4-2.72-1.03-6.08-3.39-6.04-12.6-6.4-19.68-.37-7.12.31-22.22,8.58-24.03,2.98-.67,6.26,1.05,7.84,3.89,2.68,5.19-1.21,11.06-1.46,16.34-.3,6.88,5.77,21.89-3.17,24.2Z"/>
</svg>