<?xml version="1.0" encoding="UTF-8"?>
<svg id="_cate_eyes" data-name="cate_eyes" xmlns="http://www.w3.org/2000/svg" viewBox="0 0 921 921">
  <defs>
    <style>
      .holder {
        fill: none;
      }

      .eyes {
        fill: #fff;
      }
    </style>
  </defs>
  <g id="_cate_eyes_content" data-name="cate_eyes content">
    <path id="holder" class="holder" d="m459.13,0C204.8.76-.76,207.55,0,461.87c.76,254.33,207.55,459.88,461.87,459.12s459.88-207.55,459.12-461.87C920.24,204.8,713.45-.76,459.13,0Zm1.71,573c-62.13.19-112.65-50.03-112.83-112.16-.19-62.13,50.03-112.65,112.16-112.83,62.13-.19,112.65,50.03,112.83,112.16.19,62.13-50.03,112.65-112.16,112.83Z"/>
    <g>
      <path class="eyes" d="m685.95,728.28h0c-.71-1.62-2.58-2.37-4.17-1.67,0,0-6.74,5.72-14.23,8.9-4.46,1.89-9.93,1.03-12.37,2.63-1.51.99-.77,3.62-.64,3.92.16.37,1.32,1.6,4.18,1.73,3.04.14,8.32-.82,12.37-2.63,0,0,13.07-6.64,14.28-8.9,1.21-2.26.59-3.98.59-3.98Z"/>
      <path class="eyes" d="m661.08,680.06c1.17-2.18.57-3.84.57-3.84-.69-1.56-2.49-2.29-4.03-1.61,0,0-6.5,5.52-13.73,8.59-4.3,1.82-9.58.99-11.94,2.53-1.46.96-.74,3.49-.62,3.78.16.36,1.28,1.54,4.03,1.67,2.94.13,8.03-.79,11.94-2.53,0,0,12.61-6.41,13.78-8.59Z"/>
    </g>
  </g>
</svg>