<?xml version="1.0" encoding="UTF-8"?>
<svg id="_레이어_1" data-name="레이어 1" xmlns="http://www.w3.org/2000/svg" viewBox="0 0 1080 1080">
  <g id="_레이어_2_사본" data-name="레이어 2 사본">
    <path d="m633.62,52.84c-.64-5.81-7.04-13.77-8.13-14.65-5.68-4.5-13.03-14.68-25.04-22.31-7.28-4.59-10.1-8.11-25.14-12.78-11.44-3.61-45.46-1.46-45.46-1.46l3.93,207.88s-1.22.27,10.04-.36c2.94-.21,9.28-.44,12.99-1.14,10.36-2,11.95-1.77,20.18-4.42,13.66-4.43,23.42-12.67,30.09-15.75,1.24-.54,9.62-6.9,11.75-12.5,1.92-5.2-2.61-10.25-4.97-13.38-7.26-8.64-23.95-12.9-33.09-20.57-7.13-5.93-7.78-7.77-9.42-10.48-.93-1.54-4.19-6.54-4.89-11.01,0,0-2.14-12.74,2.47-29.05,1.86-3.94,6.24-7.69,7.47-8.91,2.26-2.12,3.43-3.6,11.78-7.34,10.74-4.75,28.02-4.4,37.23-10.67,3.12-2.28,8.74-5.81,8.22-11.11Z"/>
  </g>
</svg>