<?xml version="1.0" encoding="UTF-8"?>
<svg id="cat_ears" fill="currentColor" data-name="cat ears" xmlns="http://www.w3.org/2000/svg" viewBox="0 0 921 921">
  <defs>
    <style>
      .holder {
        fill: none;
      }
      .ears {
        fill: currentColor;
      }
    </style>
  </defs>
  <g id="cat_ears_content" data-name="cat ears content">
    <path id="holder" class="holder" d="m459.13,0C204.8.76-.76,207.55,0,461.87c.76,254.33,207.55,459.88,461.87,459.12s459.88-207.55,459.12-461.87C920.24,204.8,713.45-.76,459.13,0Zm1.71,573c-62.13.19-112.65-50.03-112.83-112.16-.19-62.13,50.03-112.65,112.16-112.83,62.13-.19,112.65,50.03,112.83,112.16.19,62.13-50.03,112.65-112.16,112.83Z"/>
    <g>
      <path class="ears" d="m570.04,751.99c-.14,7.26-4.29,15.94-5.43,18.6-2.03,4.7-2.73,7.8-12.95,19.07-13.14,14.49-39.64,25.51-49.48,41.17-3.18,5.58-9.41,14.71-5,22.38,4.81,8.36,20.01,16.19,22.19,16.77,11.63,3.09,29.6,13.6,53.02,17.08,14.1,2.1,20.83,5.55,46.88,2.6,19.86-2.25,70.14-28.37,70.14-28.37l-119.36-109.29Z"/>
      <path class="ears" d="m539.4,692.77c2.42,1.71,10.67,7.09,14.77,13.4l-8.65-169.95s-6.14,5.3-17.02,15.38c-2.51,2.32-13.25,9.07-18.45,12.67-14.44,10-17.32,12.06-28.02,21.64-17.76,15.91-27.1,35.03-35.17,44.13-1.51,1.7-9.98,16.95-9.43,26.95.5,9.17,10.75,13.8,16.48,16.97,16.86,8.39,45.16,3.56,64.15,9.11,14.76,4.32,17.06,6.66,21.34,9.69Z"/>
    </g>
  </g>
</svg>