<?xml version="1.0" encoding="utf-8"?>
<!-- Generator: Adobe Illustrator 27.2.0, SVG Export Plug-In . SVG Version: 6.00 Build 0)  -->
<svg version="1.1" xmlns="http://www.w3.org/2000/svg" xmlns:xlink="http://www.w3.org/1999/xlink" x="0px" y="0px"
	 viewBox="0 0 1080 1080" style="enable-background:new 0 0 1080 1080;" xml:space="preserve">
<style type="text/css">
	.st0{display:none;}
	.st1{display:inline;}
	.st2{display:inline;fill:#F6F6F6;}
	.st3{display:inline;fill:#EAEAEA;}
	.st4{display:none;fill:none;stroke:#FF0000;stroke-miterlimit:10;}
	.st5{display:none;fill:#E0E0E0;}
	.st6{display:none;fill:none;}
	.st7{fill:#FFFFFF;}
	.st8{fill:none;}
</style>
<g id="레이어_1" class="st0">
	<g id="CPK4Mm.tif" class="st1">
		
			<image style="overflow:visible;" width="432" height="428" id="Layer_0_00000116943989604748691060000001627911030235739795_" xlink:href="20A42D7A7815596F.png"  transform="matrix(2.2251 0 0 2.2251 72 68)">
		</image>
	</g>
</g>
<g id="레이어_2" class="st0">
	<path class="st2" d="M536.5,81C282.2,81,76,287.2,76,541.5S282.2,1002,536.5,1002S997,795.8,997,541.5S790.8,81,536.5,81z
		 M536.5,654C474.4,654,424,603.6,424,541.5S474.4,429,536.5,429S649,479.4,649,541.5S598.6,654,536.5,654z"/>
	<path class="st3" d="M536.5,81c-0.3,0-0.6,0-0.9,0l0.7,348c0.1,0,0.1,0,0.2,0c61.8,0,111.9,49.8,112.5,111.4
		c0.6,62.4-50.4,113.8-112.7,113.6c-33-0.1-62.7-14.4-83.2-37.1c-15.7-17.4-40.8-22.7-62.3-13.6l-231.4,98.1
		c-26.4,11.2-37.1,43-22.9,67.9C217.5,911.7,370,1002,536.5,1002C789.1,1002,997,794.1,997,541.5S789.1,81,536.5,81z"/>
	<path class="st1" d="M536.5,81c-0.3,0-0.6,0-0.9,0l0.7,348c0.1,0,0.1,0,0.2,0c62.1,0,112.5,50.4,112.5,112.5
		c0,33.1-14.3,62.9-37.1,83.5c-20,18.1-26.6,46.9-17.1,72.2l77.9,208c14.5,38.7,60.4,54.9,96.1,34C908.2,857.6,997,706.6,997,541.5
		C997,288.9,789.1,81,536.5,81z"/>
</g>
<g id="레이어_2_사본">
	<path class="st4" d="M221,879c184.8,174.7,476.3,166.5,651-18.3s166.5-476.3-18.3-651S377.4,43.1,202.7,228S36.2,704.3,221,879z
		 M702.8,369.2c96.7,91.4,101,243.9,9.6,340.6s-243.9,101-340.6,9.6s-101-243.9-9.6-340.6C453.6,282.1,606.1,277.8,702.8,369.2z"/>
	<path class="st5" d="M218.8,876.7c0.2,0.2,0.4,0.4,0.6,0.6L458,623.9c-0.1,0-0.1-0.1-0.2-0.1c-44.9-42.4-47.1-113-5.3-158.2
		c42.4-45.7,114.8-48.1,160-5.1c23.9,22.7,35.7,53.5,35,84.1c-0.5,23.4,14,44.5,36,52.7L919.1,685c26.9,10,56.5-5.7,63.3-33.6
		c38.8-159.2-10-329.6-131-444C667.8,33.8,374,42.1,200.4,225.7S35.2,703.2,218.8,876.7z"/>
	<path class="st0" d="M221.4,878.1c0.2,0.2,0.4,0.4,0.6,0.6l238.6-253.4c-0.1,0-0.1-0.1-0.2-0.1c-45.2-42.7-47.2-113.9-4.5-159
		c22.7-24.1,53.6-35.9,84.3-35.2c27,0.6,51.5-15.8,62-40.7l86.3-204.7c16.1-38.1-6.2-81.3-46.5-90.7
		c-157.4-36.5-325.6,12.1-439,132.2C29.6,410.7,37.9,704.5,221.4,878.1z"/>
	<path id="holder" class="st6" d="M235,857c184.8,174.7,476.3,166.5,651-18.3s166.5-476.3-18.3-651S391.4,21.1,216.7,206
		S50.2,682.3,235,857z M628.6,440.5c45.2,42.7,47.2,113.9,4.5,159c-42.7,45.2-113.9,47.2-159,4.5c-45.2-42.7-47.2-113.9-4.5-159
		C512.2,399.9,583.4,397.9,628.6,440.5z"/>
	<g class="st0">
		<path class="st1" d="M642.9,246.1c2.9-5.9,9.8-11.4,11.7-13.2c3.5-3.1,5.3-5.4,18.1-10.6c16.5-6.8,42.6-5.5,56.8-14.5
			c4.8-3.3,13.5-8.4,12.9-16.5c-0.7-8.8-10.1-21.1-11.7-22.5c-8.4-7.1-19-22.7-36.9-34.8c-10.8-7.2-15-12.7-37.5-20.4
			c-17.2-5.9-68.8-4.1-68.8-4.1L642.9,246.1z"/>
		<path class="st1" d="M550.8,431.4c3.4,0,15.9,2.6,22.1,3.5c17.4,2.7,20.9,3.2,35.2,3.6c23.8,0.7,43.8-6.7,55.9-7.8
			c2.3-0.2,18.9-5.4,25.4-13c6-7,1.7-17.4-0.2-23.7c-6.4-17.7-30.3-33.7-40.2-50.8c-7.7-13.3-7.8-16.6-8.8-21.7
			c-0.6-2.9-2.8-12.5-1.5-19.9"/>
	</g>
	<g>
		<g>
			<g class="st0">
				<g class="st1">
					<path d="M539.6,107.3c1.7-4.9,6.4-9.9,7.7-11.5c2.4-2.8,3.6-4.7,13-10.2c12.1-7,32.6-8.8,42.7-17.4c3.4-3.1,9.6-8,8.3-14.2
						c-1.5-6.8-10.1-15.4-11.5-16.3c-7.3-4.6-17.3-15.7-32.5-23.2c-9.2-4.5-13-8.3-31.4-11.9c-14-2.8-54,4.1-54,4.1"/>
				</g>
			</g>
			<g class="st0">
				<g class="st1">
					<path d="M540.4,142c1.4,5.2,5.9,10.7,7.2,12.4c2.3,3,3.3,5.1,12.5,11.2c11.8,7.9,32.1,10.8,41.8,20.1c3.2,3.4,9.2,8.8,7.6,15.2
						c-1.8,6.9-10.9,15.5-12.3,16.3c-7.5,4.5-18,15.5-33.6,22.5c-9.4,4.2-11.8,5-23.8,8.7c-4.3,1.3-13.1,3.6-15.3,4.6
						c-9.6,4.5-15,6.8-15,6.8"/>
				</g>
			</g>
			<g>
				<path class="st7" d="M455,96.3L455,96.3c0.1,1.3,1.2,2.2,2.5,2c0,0,5.8-2.4,11.6-3c3.5-0.3,7,1.5,9,0.9c1.2-0.3,1.3-2.3,1.3-2.5
					v0c0-0.3-0.6-1.4-2.5-2.1c-2-0.8-5.9-1.2-9-0.9c0,0-10.4,1.7-11.7,3S455,96.3,455,96.3z"/>
				<g>
					<path class="st7" d="M451.5,96.3c1,9.8,12.4,2.9,17.6,2.6c3.7-0.2,8.2,2.4,11.5-0.1c1.9-1.4,2.7-4.1,2-6.3
						c-2-6.3-12.5-5.6-17.5-4.8C459.7,88.7,452.1,89.4,451.5,96.3c-0.4,4.5,6.6,4.5,7,0c0-0.2,5.8-1.3,6.9-1.6c1-0.2,2-0.5,3.1-0.6
						c1.9-0.2,4.8,0.9,6.4,0.5c0.2,0,2.3-1.9,2.3-1.8c0-0.1-3.1-0.5-3.5-0.6c-2.2-0.4-4.2-0.4-6.3-0.2c-2.4,0.3-4.8,0.9-7.2,1.6
						c-0.6,0.2-1.7,0.4-2.2,0.7c-2.4,1.7,0.1-1.9,0.5,1.9C458,91.9,451,91.9,451.5,96.3z"/>
				</g>
			</g>
			<g>
				<path class="st7" d="M460.3,137.2L460.3,137.2c0.1,1.2,1.2,2.1,2.4,2c0,0,5.6-2.4,11.2-2.9c3.3-0.3,6.8,1.4,8.7,0.9
					c1.2-0.3,1.3-2.2,1.2-2.4l0,0c0-0.3-0.5-1.3-2.4-2c-2-0.7-5.7-1.2-8.7-0.9c0,0-10,1.6-11.3,2.9
					C460.2,135.9,460.3,137.2,460.3,137.2z"/>
				<g>
					<path class="st7" d="M456.8,137.2c1,9.6,12,2.9,17.1,2.6c3.6-0.2,7.9,2.3,11.2-0.1c1.8-1.4,2.7-4,2-6.2
						c-1.9-6.1-12.2-5.5-17-4.7C464.7,129.7,457.4,130.4,456.8,137.2c-0.4,4.5,6.6,4.5,7,0c0,0.5,1.6-0.3,2.4-0.5
						c1.4-0.3,2.8-0.6,4.1-0.9c1-0.2,2-0.4,3-0.5c1.7-0.2,4.7,0.9,6.1,0.5c0.1,0,2.2-2.2,2.3-2c0-0.1-2.9-0.5-3.3-0.6
						c-2.1-0.4-4-0.4-6.1-0.2c-2.4,0.3-4.7,0.9-7,1.6c-0.6,0.2-1.6,0.3-2.1,0.7c-2.4,1.7,0.2-2,0.7,1.9
						C463.3,132.7,456.3,132.7,456.8,137.2z"/>
				</g>
			</g>
		</g>
		<path class="st8" d="M1049.3,717.9c98.9-280.8-48.6-588.7-329.4-687.5S131.2,78.9,32.3,359.7s48.6,588.7,329.4,687.5
			S950.4,998.7,1049.3,717.9z M274.8,445.1C326.5,298.2,487.6,221,634.5,272.7s224.1,212.8,172.4,359.8S594.1,856.6,447.1,804.9
			C300.2,753.1,223,592,274.8,445.1z"/>
	</g>
	<g class="st0">
		<g class="st1">
			<path class="st7" d="M558.5,194.9L558.5,194.9c-0.6,1.7,0.2,3.5,1.9,4.1c0,0,8.8,0.5,16.4,3.4c4.5,1.7,7.9,6.1,10.8,6.6
				c1.8,0.3,3.1-2.1,3.2-2.4c0.1-0.4,0.1-2.1-1.8-4.1c-2.1-2.2-6.6-5.1-10.8-6.6c0,0-14-4.2-16.5-3.4
				C559.2,193.2,558.5,194.9,558.5,194.9z"/>
		</g>
		<g class="st1">
			<path class="st7" d="M543.3,247c-2.3,0.8-3.1,2.4-3.1,2.4c-0.6,1.6,0.2,3.4,1.8,3.9c0,0,8.5,0.5,15.9,3.2
				c4.4,1.6,7.6,5.9,10.4,6.4c1.7,0.3,2.9-2,3.1-2.3c0.1-0.4,0.1-2-1.8-4c-2-2.1-6.4-5-10.4-6.4C559.2,250.2,545.6,246.2,543.3,247z
				"/>
		</g>
	</g>
</g>
</svg>
