<?xml version="1.0" encoding="UTF-8"?>
<svg id="_레이어_1" data-name="레이어 1" xmlns="http://www.w3.org/2000/svg" viewBox="0 0 1080 1080">
  <defs>
    <style>
      .cls-1 {
        fill: #fff;
      }
    </style>
  </defs>
  <g id="_레이어_2_사본" data-name="레이어 2 사본">
    <g>
      <g>
        <path class="cls-1" d="m471.22,85.58h0c-.03,1.09.8,1.95,1.91,1.9,0,0,5.06-1.48,9.96-1.46,2.95.07,5.71,1.89,7.43,1.57,1.03-.14,1.29-1.8,1.31-1.97h0c.03-.25-.37-1.22-1.9-1.98-1.6-.85-4.82-1.54-7.43-1.57,0,0-8.84.48-10.04,1.45s-1.24,2.06-1.24,2.06Z"/>
        <path class="cls-1" d="m468.3,85.26c-.05,8.27,10.09,3.54,14.46,3.76,3.11.17,6.63,2.75,9.61.96,1.71-1,2.63-3.18,2.24-5.08-1.1-5.44-9.93-5.81-14.18-5.59-4.6.35-11.01.24-12.14,5.95-.74,3.72,5.1,4.36,5.85.63.02-.17,4.96-.56,5.91-.71.85-.08,1.72-.24,2.64-.22,1.6,0,3.93,1.19,5.3,1,.17.02,2.09-1.38,2.08-1.29,0-.08-2.54-.7-2.87-.82-1.8-.53-3.47-.71-5.24-.74-2.03.03-4.09.32-6.16.68-.52.11-1.46.18-1.9.39-2.16,1.2.26-1.58.25,1.63-.03-3.64-5.87-4.27-5.85-.55Z"/>
      </g>
      <g>
        <path class="cls-1" d="m471.95,120.21h0c-.03,1.01.81,1.86,1.82,1.89,0,0,4.89-1.5,9.62-1.41,2.78.05,5.55,1.78,7.18,1.54,1.03-.14,1.28-1.72,1.22-1.9h0c.03-.25-.3-1.13-1.82-1.89-1.61-.77-4.65-1.52-7.18-1.54,0,0-8.5.43-9.7,1.4-1.1.81-1.14,1.9-1.14,1.9Z"/>
        <path class="cls-1" d="m469.02,119.9c-.03,8.11,9.76,3.51,14.04,3.72,3.02.16,6.39,2.64,9.36.93,1.63-1.01,2.62-3.1,2.23-5-1.03-5.27-9.69-5.7-13.77-5.46-4.59.26-10.75.19-11.87,5.81-.74,3.72,5.1,4.36,5.85.63-.05.42,1.36-.11,2.05-.2,1.2-.12,2.39-.25,3.51-.38.85-.08,1.71-.15,2.55-.15,1.44-.01,3.84,1.18,5.05.97.08,0,2.04-1.64,2.1-1.46,0-.08-2.38-.68-2.7-.8-1.72-.52-3.3-.7-5.08-.72-2.03.03-4.01.33-5.99.7-.52.11-1.36.11-1.82.39-2.16,1.2.35-1.65.41,1.65-.09-3.81-5.94-4.45-5.93-.64Z"/>
      </g>
    </g>
  </g>
</svg>