<?xml version="1.0" encoding="UTF-8"?>
<svg id="_레이어_4" data-name="레이어 4" xmlns="http://www.w3.org/2000/svg" viewBox="0 0 1080 1080">
  <defs>
    <style>
      .cls-1 {
        fill: none;
      }

      .cls-2 {
        fill: #ddd;
      }
    </style>
  </defs>
  <g>
    <path class="cls-1" d="m541.14,209.51v.18s-10.71.05-10.71.05c3.57-.13,7.14-.21,10.71-.22Z"/>
    <path class="cls-2" d="m500.32,211.65c17.21-6.71,35.91-2.65,42.62-48.81l.2,46.66c-3.57,0-9.14.1-12.71.23l-30.11,1.92Z"/>
  </g>
  <g>
    <path class="cls-1" d="m516.68.49c-1.9-.37-3.87-.56-5.89-.55l29.46-.12v.08c-7.85.02-15.71.23-23.57.59Z"/>
    <path class="cls-2" d="m544.46,47.95c-.94-35.35-12.68-42.7-38.45-45.71,7.87-.37,30.4-.32,38.25-.35l.2,46.06Z"/>
  </g>
</svg>